<?xml version="1.0" encoding="utf-8"?>
<!-- Generator: Adobe Illustrator 24.1.1, SVG Export Plug-In . SVG Version: 6.00 Build 0)  -->
<svg version="1.1" id="Layer_1" xmlns="http://www.w3.org/2000/svg" xmlns:xlink="http://www.w3.org/1999/xlink" x="0px" y="0px"
	 viewBox="0 0 512 512" style="enable-background:new 0 0 512 512;" xml:space="preserve">
<style type="text/css">
	.st0{fill:#95A5A6;}
	.st1{fill:#BDC3C7;}
	.st2{fill:#7F8C8D;}
	.st3{fill:#ECF0F1;}
</style>
<g id="XMLID_1_">
	<path id="XMLID_3_" class="st0" d="M46.8,325.6v67.6v9.4v2.4c0,0,0,0,0,2.4C46.8,463.2,140.4,512,256,512s209.2-48.8,209.2-104.6
		v-4.7v-7.1v-70H46.8z"/>
	<ellipse id="XMLID_4_" class="st1" cx="256" cy="325.6" rx="209.2" ry="92.8"/>
	<path id="XMLID_5_" class="st2" d="M48.4,406.6c-0.8,2.4-1.6,7.1-1.6,11.8c0,51.1,93.6,92.8,209.2,92.8s209.2-41.7,209.2-92.8
		c0-4.7-0.8-9.4-1.6-11.8c-12.6,44-100.7,81-207.6,81S61,450.7,48.4,406.6z"/>
	<path id="XMLID_6_" class="st0" d="M46.8,209.2v67.6v9.4v2.4c0,0,0,0,0,2.4c0,55.8,93.6,104.6,209.2,104.6S465.2,346.8,465.2,291
		v-4.7v-7.1v-70H46.8z"/>
	<ellipse id="XMLID_7_" class="st1" cx="256" cy="209.2" rx="209.2" ry="92.8"/>
	<path id="XMLID_8_" class="st2" d="M48.4,290.2c-0.8,2.4-1.6,7.1-1.6,11.8c0,51.1,93.6,92.8,209.2,92.8s209.2-41.7,209.2-92.8
		c0-4.7-0.8-9.4-1.6-11.8C451,334.3,363,372,256,372S61,334.3,48.4,290.2z"/>
	<path id="XMLID_9_" class="st0" d="M46.8,92.8v67.6v9.4v2.4c0,0,0,0,0,2.4c0,55.8,93.6,104.6,209.2,104.6s209.2-48.8,209.2-104.6
		v-4.7v-7.1v-70C465.2,92.8,46.8,92.8,46.8,92.8z"/>
	<path id="XMLID_10_" class="st2" d="M48.4,174.6c-0.8,2.4-1.6,7.1-1.6,11.8c0,50.3,93.6,92.8,209.2,92.8s209.2-41.7,209.2-92.8
		c0-4.7-0.8-9.4-1.6-11.8c-12.6,44-100.7,81-207.6,81S61,218.6,48.4,174.6z"/>
	<path id="XMLID_11_" class="st1" d="M256,325.6v185.6c115.6,0,209.2-48.8,209.2-104.6v-4.7v-7.1v-70H256V325.6z"/>
	<path id="XMLID_12_" class="st3" d="M256,232v185.6c115.6,0,209.2-41.7,209.2-92.8S371.6,232,256,232z"/>
	<path id="XMLID_13_" class="st1" d="M256,209.2v185.6c115.6,0,209.2-47.2,209.2-104.6v-4.7v-6.3v-70H256z"/>
	<path id="XMLID_14_" class="st0" d="M463.6,290.2C451,336.6,363,372,256,372v23.6c115.6,0,209.2-41.7,209.2-92.8
		C465.2,298.1,464.4,294.1,463.6,290.2z"/>
	<path id="XMLID_15_" class="st3" d="M256,116.4V302c115.6,0,209.2-41.7,209.2-92.8S371.6,116.4,256,116.4z"/>
	<path id="XMLID_16_" class="st1" d="M256,92.8v186.4c115.6,0,209.2-47.2,209.2-104.6v-4.7v-7.1v-70C465.2,92.8,256,92.8,256,92.8z"
		/>
	<path id="XMLID_17_" class="st0" d="M463.6,174.6c-12.6,45.6-100.7,81-207.6,81v23.6c115.6,0,209.2-41.7,209.2-92.8
		C465.2,181.7,464.4,177.7,463.6,174.6z"/>
	<path id="XMLID_18_" class="st0" d="M463.6,406.6c-12.6,44-100.7,81-207.6,81v23.6c115.6,0,209.2-41.7,209.2-92.8
		C465.2,413.7,464.4,409,463.6,406.6z"/>
	<ellipse id="XMLID_19_" class="st1" cx="256" cy="92.8" rx="209.2" ry="92.8"/>
</g>
</svg>
